<svg width="233" height="233" viewBox="0 0 233 233" fill="none" xmlns="http://www.w3.org/2000/svg">
<g style="mix-blend-mode:hard-light" filter="url(#filter0_f_438_4)">
<path d="M133.896 90.4599C133.896 85.9291 137.57 82.25 142.095 82.25C146.62 82.25 150.294 85.9291 150.294 90.4599C150.294 94.9908 146.62 98.6699 142.095 98.6699C137.57 98.6699 133.896 94.9908 133.896 90.4599Z" stroke="#773EE3" stroke-width="4.438"/>
<path fill-rule="evenodd" clip-rule="evenodd" d="M128.01 88.3148C127.873 89.1665 127.805 90.0181 127.805 90.8698C127.805 98.5347 133.997 104.731 141.618 104.731C142.469 104.731 143.285 104.633 144.136 104.496V131.984C144.136 143.536 137.332 150.383 125.764 150.383H100.625C89.0544 150.383 82.25 143.536 82.25 131.984V106.779C82.25 95.1962 89.0544 88.3148 100.625 88.3148H128.01ZM120.797 125.716L130.629 113.013L130.493 113.081C131.038 112.331 131.14 111.378 130.765 110.526C130.395 109.674 129.575 109.095 128.693 109.027C127.771 108.925 126.856 109.334 126.308 110.083L118.079 120.746L108.651 113.319C108.073 112.877 107.392 112.703 106.712 112.774C106.035 112.877 105.422 113.248 105.011 113.793L94.9436 126.912L94.7361 127.218C94.1577 128.305 94.4299 129.702 95.4505 130.455C95.9269 130.761 96.4372 130.966 97.0156 130.966C97.8015 131 98.5465 130.588 99.0228 129.944L107.562 118.937L117.259 126.23L117.565 126.431C118.654 127.011 120.014 126.741 120.797 125.716Z" stroke="#773EE3" stroke-width="4.438"/>
</g>
<g style="mix-blend-mode:hard-light" filter="url(#filter1_f_438_4)">
<path d="M133.896 90.4599C133.896 85.9291 137.57 82.25 142.095 82.25C146.62 82.25 150.294 85.9291 150.294 90.4599C150.294 94.9908 146.62 98.6699 142.095 98.6699C137.57 98.6699 133.896 94.9908 133.896 90.4599Z" stroke="#7942E3" stroke-width="5.80354"/>
<path fill-rule="evenodd" clip-rule="evenodd" d="M128.01 88.3148C127.873 89.1665 127.805 90.0181 127.805 90.8698C127.805 98.5347 133.997 104.731 141.618 104.731C142.469 104.731 143.285 104.633 144.136 104.496V131.984C144.136 143.536 137.332 150.383 125.764 150.383H100.625C89.0544 150.383 82.25 143.536 82.25 131.984V106.779C82.25 95.1962 89.0544 88.3148 100.625 88.3148H128.01ZM120.797 125.716L130.629 113.013L130.493 113.081C131.038 112.331 131.14 111.378 130.765 110.526C130.395 109.674 129.575 109.095 128.693 109.027C127.771 108.925 126.856 109.334 126.308 110.083L118.079 120.746L108.651 113.319C108.073 112.877 107.392 112.703 106.712 112.774C106.035 112.877 105.422 113.248 105.011 113.793L94.9436 126.912L94.7361 127.218C94.1577 128.305 94.4299 129.702 95.4505 130.455C95.9269 130.761 96.4372 130.966 97.0156 130.966C97.8015 131 98.5465 130.588 99.0228 129.944L107.562 118.937L117.259 126.23L117.565 126.431C118.654 127.011 120.014 126.741 120.797 125.716Z" stroke="#7942E3" stroke-width="5.80354"/>
</g>
<g style="mix-blend-mode:hard-light" filter="url(#filter2_ddi_438_4)">
<path d="M133.896 90.4599C133.896 85.9291 137.57 82.25 142.095 82.25C146.62 82.25 150.294 85.9291 150.294 90.4599C150.294 94.9908 146.62 98.6699 142.095 98.6699C137.57 98.6699 133.896 94.9908 133.896 90.4599Z" stroke="#8350E5" stroke-opacity="0.2" stroke-width="4.438"/>
<path fill-rule="evenodd" clip-rule="evenodd" d="M128.01 88.3148C127.873 89.1665 127.805 90.0181 127.805 90.8698C127.805 98.5347 133.997 104.731 141.618 104.731C142.469 104.731 143.285 104.633 144.136 104.496V131.984C144.136 143.536 137.332 150.383 125.764 150.383H100.625C89.0544 150.383 82.25 143.536 82.25 131.984V106.779C82.25 95.1962 89.0544 88.3148 100.625 88.3148H128.01ZM120.797 125.716L130.629 113.013L130.493 113.081C131.038 112.331 131.14 111.378 130.765 110.526C130.395 109.674 129.575 109.095 128.693 109.027C127.771 108.925 126.856 109.334 126.308 110.083L118.079 120.746L108.651 113.319C108.073 112.877 107.392 112.703 106.712 112.774C106.035 112.877 105.422 113.248 105.011 113.793L94.9436 126.912L94.7361 127.218C94.1577 128.305 94.4299 129.702 95.4505 130.455C95.9269 130.761 96.4372 130.966 97.0156 130.966C97.8015 131 98.5465 130.588 99.0228 129.944L107.562 118.937L117.259 126.23L117.565 126.431C118.654 127.011 120.014 126.741 120.797 125.716Z" stroke="#8350E5" stroke-opacity="0.2" stroke-width="4.438"/>
</g>
<g filter="url(#filter3_f_438_4)">
<path d="M133.896 90.4599C133.896 85.9291 137.57 82.25 142.095 82.25C146.62 82.25 150.294 85.9291 150.294 90.4599C150.294 94.9908 146.62 98.6699 142.095 98.6699C137.57 98.6699 133.896 94.9908 133.896 90.4599Z" stroke="#8350E5" stroke-width="2.73108"/>
<path fill-rule="evenodd" clip-rule="evenodd" d="M128.01 88.3148C127.873 89.1665 127.805 90.0181 127.805 90.8698C127.805 98.5347 133.997 104.731 141.618 104.731C142.469 104.731 143.285 104.633 144.136 104.496V131.984C144.136 143.536 137.332 150.383 125.764 150.383H100.625C89.0544 150.383 82.25 143.536 82.25 131.984V106.779C82.25 95.1962 89.0544 88.3148 100.625 88.3148H128.01ZM120.797 125.716L130.629 113.013L130.493 113.081C131.038 112.331 131.14 111.378 130.765 110.526C130.395 109.674 129.575 109.095 128.693 109.027C127.771 108.925 126.856 109.334 126.308 110.083L118.079 120.746L108.651 113.319C108.073 112.877 107.392 112.703 106.712 112.774C106.035 112.877 105.422 113.248 105.011 113.793L94.9436 126.912L94.7361 127.218C94.1577 128.305 94.4299 129.702 95.4505 130.455C95.9269 130.761 96.4372 130.966 97.0156 130.966C97.8015 131 98.5465 130.588 99.0228 129.944L107.562 118.937L117.259 126.23L117.565 126.431C118.654 127.011 120.014 126.741 120.797 125.716Z" stroke="#8350E5" stroke-width="2.73108"/>
</g>
<g filter="url(#filter4_f_438_4)">
<path d="M133.896 90.4599C133.896 85.9291 137.57 82.25 142.095 82.25C146.62 82.25 150.294 85.9291 150.294 90.4599C150.294 94.9908 146.62 98.6699 142.095 98.6699C137.57 98.6699 133.896 94.9908 133.896 90.4599Z" stroke="white" stroke-width="1.36554"/>
<path fill-rule="evenodd" clip-rule="evenodd" d="M128.01 88.3148C127.873 89.1665 127.805 90.0181 127.805 90.8698C127.805 98.5347 133.997 104.731 141.618 104.731C142.469 104.731 143.285 104.633 144.136 104.496V131.984C144.136 143.536 137.332 150.383 125.764 150.383H100.625C89.0544 150.383 82.25 143.536 82.25 131.984V106.779C82.25 95.1962 89.0544 88.3148 100.625 88.3148H128.01ZM120.797 125.716L130.629 113.013L130.493 113.081C131.038 112.331 131.14 111.378 130.765 110.526C130.395 109.674 129.575 109.095 128.693 109.027C127.771 108.925 126.856 109.334 126.308 110.083L118.079 120.746L108.651 113.319C108.073 112.877 107.392 112.703 106.712 112.774C106.035 112.877 105.422 113.248 105.011 113.793L94.9436 126.912L94.7361 127.218C94.1577 128.305 94.4299 129.702 95.4505 130.455C95.9269 130.761 96.4372 130.966 97.0156 130.966C97.8015 131 98.5465 130.588 99.0228 129.944L107.562 118.937L117.259 126.23L117.565 126.431C118.654 127.011 120.014 126.741 120.797 125.716Z" stroke="white" stroke-width="1.36554"/>
</g>
<g filter="url(#filter5_b_438_4)">
<path d="M133.876 90.4484C133.876 85.924 137.549 82.25 142.073 82.25C146.596 82.25 150.269 85.924 150.269 90.4484C150.269 94.9729 146.596 98.6469 142.073 98.6469C137.549 98.6469 133.876 94.9729 133.876 90.4484Z" fill="#5B1ED0" fill-opacity="0.01"/>
<path fill-rule="evenodd" clip-rule="evenodd" d="M127.992 88.3063C127.856 89.1568 127.788 90.0072 127.788 90.8577C127.788 98.5118 133.978 104.7 141.596 104.7C142.446 104.7 143.263 104.601 144.113 104.465V131.915C144.113 143.45 137.311 150.288 125.748 150.288H100.618C89.0518 150.288 82.25 143.45 82.25 131.915V106.744C82.25 95.178 89.0518 88.3063 100.618 88.3063H127.992ZM120.782 125.655L130.611 112.97L130.475 113.038C131.019 112.289 131.121 111.337 130.747 110.486C130.376 109.636 129.557 109.058 128.676 108.989C127.754 108.887 126.839 109.296 126.292 110.044L118.065 120.692L108.641 113.276C108.063 112.834 107.383 112.66 106.703 112.732C106.026 112.834 105.414 113.204 105.002 113.749L94.9388 126.849L94.7314 127.155C94.1532 128.241 94.4253 129.635 95.4456 130.387C95.9217 130.693 96.4318 130.897 97.01 130.897C97.7956 130.931 98.5404 130.52 99.0166 129.877L107.553 118.885L117.245 126.169L117.552 126.37C118.64 126.948 120 126.679 120.782 125.655Z" fill="#5B1ED0" fill-opacity="0.01"/>
</g>
<defs>
<filter id="filter0_f_438_4" x="0.43721" y="0.43721" width="231.67" height="231.759" filterUnits="userSpaceOnUse" color-interpolation-filters="sRGB">
<feFlood flood-opacity="0" result="BackgroundImageFix"/>
<feBlend mode="normal" in="SourceGraphic" in2="BackgroundImageFix" result="shape"/>
<feGaussianBlur stdDeviation="39.7969" result="effect1_foregroundBlur_438_4"/>
</filter>
<filter id="filter1_f_438_4" x="52.817" y="52.8169" width="126.91" height="127" filterUnits="userSpaceOnUse" color-interpolation-filters="sRGB">
<feFlood flood-opacity="0" result="BackgroundImageFix"/>
<feBlend mode="normal" in="SourceGraphic" in2="BackgroundImageFix" result="shape"/>
<feGaussianBlur stdDeviation="13.2656" result="effect1_foregroundBlur_438_4"/>
</filter>
<filter id="filter2_ddi_438_4" x="45.5404" y="72.0716" width="141.464" height="141.553" filterUnits="userSpaceOnUse" color-interpolation-filters="sRGB">
<feFlood flood-opacity="0" result="BackgroundImageFix"/>
<feColorMatrix in="SourceAlpha" type="matrix" values="0 0 0 0 0 0 0 0 0 0 0 0 0 0 0 0 0 0 127 0" result="hardAlpha"/>
<feOffset dy="17.2453"/>
<feGaussianBlur stdDeviation="6.63282"/>
<feColorMatrix type="matrix" values="0 0 0 0 0.114706 0 0 0 0 0.0382353 0 0 0 0 0.261765 0 0 0 0.7 0"/>
<feBlend mode="multiply" in2="BackgroundImageFix" result="effect1_dropShadow_438_4"/>
<feColorMatrix in="SourceAlpha" type="matrix" values="0 0 0 0 0 0 0 0 0 0 0 0 0 0 0 0 0 0 127 0" result="hardAlpha"/>
<feOffset dy="26.5313"/>
<feGaussianBlur stdDeviation="17.2453"/>
<feColorMatrix type="matrix" values="0 0 0 0 0.229412 0 0 0 0 0.0764706 0 0 0 0 0.523529 0 0 0 1 0"/>
<feBlend mode="color-dodge" in2="effect1_dropShadow_438_4" result="effect2_dropShadow_438_4"/>
<feBlend mode="normal" in="SourceGraphic" in2="effect2_dropShadow_438_4" result="shape"/>
<feColorMatrix in="SourceAlpha" type="matrix" values="0 0 0 0 0 0 0 0 0 0 0 0 0 0 0 0 0 0 127 0" result="hardAlpha"/>
<feOffset dx="-1.72453" dy="3.44906"/>
<feGaussianBlur stdDeviation="0.862266"/>
<feComposite in2="hardAlpha" operator="arithmetic" k2="-1" k3="1"/>
<feColorMatrix type="matrix" values="0 0 0 0 1 0 0 0 0 1 0 0 0 0 1 0 0 0 0.5 0"/>
<feBlend mode="normal" in2="shape" result="effect3_innerShadow_438_4"/>
</filter>
<filter id="filter3_f_438_4" x="80.2018" y="80.2018" width="72.1408" height="72.23" filterUnits="userSpaceOnUse" color-interpolation-filters="sRGB">
<feFlood flood-opacity="0" result="BackgroundImageFix"/>
<feBlend mode="normal" in="SourceGraphic" in2="BackgroundImageFix" result="shape"/>
<feGaussianBlur stdDeviation="0.341384" result="effect1_foregroundBlur_438_4"/>
</filter>
<filter id="filter4_f_438_4" x="81.1121" y="81.112" width="70.3201" height="70.4094" filterUnits="userSpaceOnUse" color-interpolation-filters="sRGB">
<feFlood flood-opacity="0" result="BackgroundImageFix"/>
<feBlend mode="normal" in="SourceGraphic" in2="BackgroundImageFix" result="shape"/>
<feGaussianBlur stdDeviation="0.22759" result="effect1_foregroundBlur_438_4"/>
</filter>
<filter id="filter5_b_438_4" x="66.25" y="66.25" width="100.019" height="100.038" filterUnits="userSpaceOnUse" color-interpolation-filters="sRGB">
<feFlood flood-opacity="0" result="BackgroundImageFix"/>
<feGaussianBlur in="BackgroundImage" stdDeviation="8"/>
<feComposite in2="SourceAlpha" operator="in" result="effect1_backgroundBlur_438_4"/>
<feBlend mode="normal" in="SourceGraphic" in2="effect1_backgroundBlur_438_4" result="shape"/>
</filter>
</defs>
</svg>
