<svg width="229" height="233" viewBox="0 0 229 233" fill="none" xmlns="http://www.w3.org/2000/svg">
<g style="mix-blend-mode:hard-light" filter="url(#filter0_f_438_12)">
<path fill-rule="evenodd" clip-rule="evenodd" d="M143.032 121.699C144.249 122.346 145.188 123.368 145.849 124.39C147.135 126.502 147.031 129.091 145.779 131.373L143.345 135.461C142.059 137.642 139.66 139.004 137.191 139.004C135.974 139.004 134.618 138.664 133.506 137.982C132.602 137.403 131.559 137.199 130.446 137.199C127.004 137.199 124.118 140.026 124.014 143.399C124.014 147.316 120.815 150.382 116.817 150.382H112.088C108.055 150.382 104.856 147.316 104.856 143.399C104.786 140.026 101.901 137.199 98.4585 137.199C97.3111 137.199 96.268 137.403 95.3988 137.982C94.2862 138.664 92.8954 139.004 91.7133 139.004C89.2099 139.004 86.8109 137.642 85.5244 135.461L83.1253 131.373C81.8389 129.159 81.7693 126.502 83.0558 124.39C83.6121 123.368 84.6552 122.346 85.8373 121.699C86.8108 121.222 87.4367 120.438 88.0278 119.518C89.7662 116.589 88.7231 112.739 85.7678 111.002C82.3256 109.06 81.213 104.734 83.1949 101.361L85.5244 97.3413C87.541 93.9688 91.8524 92.7765 95.3293 94.7523C98.3542 96.3875 102.283 95.2974 104.056 92.4017C104.613 91.4479 104.926 90.4259 104.856 89.4039C104.786 88.0753 105.169 86.8149 105.829 85.7929C107.116 83.6808 109.445 82.3181 111.984 82.25H116.886C119.459 82.25 121.788 83.6808 123.075 85.7929C123.701 86.8149 124.118 88.0753 124.014 89.4039C123.944 90.4259 124.257 91.4479 124.813 92.4017C126.587 95.2974 130.516 96.3875 133.575 94.7523C137.017 92.7765 141.363 93.9688 143.345 97.3413L145.675 101.361C147.691 104.734 146.579 109.06 143.102 111.002C140.147 112.739 139.103 116.589 140.877 119.518C141.433 120.438 142.059 121.222 143.032 121.699ZM104.613 116.35C104.613 121.699 109.028 125.957 114.487 125.957C119.946 125.957 124.257 121.699 124.257 116.35C124.257 111.002 119.946 106.71 114.487 106.71C109.028 106.71 104.613 111.002 104.613 116.35Z" stroke="#7942E3" stroke-width="5.80354"/>
</g>
<g style="mix-blend-mode:hard-light" filter="url(#filter1_f_438_12)">
<path fill-rule="evenodd" clip-rule="evenodd" d="M143.032 121.699C144.249 122.346 145.188 123.368 145.849 124.39C147.135 126.502 147.031 129.091 145.779 131.373L143.345 135.461C142.059 137.642 139.66 139.004 137.191 139.004C135.974 139.004 134.618 138.664 133.506 137.982C132.602 137.403 131.559 137.199 130.446 137.199C127.004 137.199 124.118 140.026 124.014 143.399C124.014 147.316 120.815 150.382 116.817 150.382H112.088C108.055 150.382 104.856 147.316 104.856 143.399C104.786 140.026 101.901 137.199 98.4585 137.199C97.3111 137.199 96.268 137.403 95.3988 137.982C94.2862 138.664 92.8954 139.004 91.7133 139.004C89.2099 139.004 86.8109 137.642 85.5244 135.461L83.1253 131.373C81.8389 129.159 81.7693 126.502 83.0558 124.39C83.6121 123.368 84.6552 122.346 85.8373 121.699C86.8108 121.222 87.4367 120.438 88.0278 119.518C89.7662 116.589 88.7231 112.739 85.7678 111.002C82.3256 109.06 81.213 104.734 83.1949 101.361L85.5244 97.3413C87.541 93.9688 91.8524 92.7765 95.3293 94.7523C98.3542 96.3875 102.283 95.2974 104.056 92.4017C104.613 91.4479 104.926 90.4259 104.856 89.4039C104.786 88.0753 105.169 86.8149 105.829 85.7929C107.116 83.6808 109.445 82.3181 111.984 82.25H116.886C119.459 82.25 121.788 83.6808 123.075 85.7929C123.701 86.8149 124.118 88.0753 124.014 89.4039C123.944 90.4259 124.257 91.4479 124.813 92.4017C126.587 95.2974 130.516 96.3875 133.575 94.7523C137.017 92.7765 141.363 93.9688 143.345 97.3413L145.675 101.361C147.691 104.734 146.579 109.06 143.102 111.002C140.147 112.739 139.103 116.589 140.877 119.518C141.433 120.438 142.059 121.222 143.032 121.699ZM104.613 116.35C104.613 121.699 109.028 125.957 114.487 125.957C119.946 125.957 124.257 121.699 124.257 116.35C124.257 111.002 119.946 106.71 114.487 106.71C109.028 106.71 104.613 111.002 104.613 116.35Z" stroke="#773EE3" stroke-width="4.438"/>
</g>
<g style="mix-blend-mode:hard-light" filter="url(#filter2_ddi_438_12)">
<path fill-rule="evenodd" clip-rule="evenodd" d="M143.032 121.699C144.249 122.346 145.188 123.368 145.849 124.39C147.135 126.502 147.031 129.091 145.779 131.373L143.345 135.461C142.059 137.642 139.66 139.004 137.191 139.004C135.974 139.004 134.618 138.664 133.506 137.982C132.602 137.403 131.559 137.199 130.446 137.199C127.004 137.199 124.118 140.026 124.014 143.399C124.014 147.316 120.815 150.382 116.817 150.382H112.088C108.055 150.382 104.856 147.316 104.856 143.399C104.786 140.026 101.901 137.199 98.4585 137.199C97.3111 137.199 96.268 137.403 95.3988 137.982C94.2862 138.664 92.8954 139.004 91.7133 139.004C89.2099 139.004 86.8109 137.642 85.5244 135.461L83.1253 131.373C81.8389 129.159 81.7693 126.502 83.0558 124.39C83.6121 123.368 84.6552 122.346 85.8373 121.699C86.8108 121.222 87.4367 120.438 88.0278 119.518C89.7662 116.589 88.7231 112.739 85.7678 111.002C82.3256 109.06 81.213 104.734 83.1949 101.361L85.5244 97.3413C87.541 93.9688 91.8524 92.7765 95.3293 94.7523C98.3542 96.3875 102.283 95.2974 104.056 92.4017C104.613 91.4479 104.926 90.4259 104.856 89.4039C104.786 88.0753 105.169 86.8149 105.829 85.7929C107.116 83.6808 109.445 82.3181 111.984 82.25H116.886C119.459 82.25 121.788 83.6808 123.075 85.7929C123.701 86.8149 124.118 88.0753 124.014 89.4039C123.944 90.4259 124.257 91.4479 124.813 92.4017C126.587 95.2974 130.516 96.3875 133.575 94.7523C137.017 92.7765 141.363 93.9688 143.345 97.3413L145.675 101.361C147.691 104.734 146.579 109.06 143.102 111.002C140.147 112.739 139.103 116.589 140.877 119.518C141.433 120.438 142.059 121.222 143.032 121.699ZM104.613 116.35C104.613 121.699 109.028 125.957 114.487 125.957C119.946 125.957 124.257 121.699 124.257 116.35C124.257 111.002 119.946 106.71 114.487 106.71C109.028 106.71 104.613 111.002 104.613 116.35Z" stroke="#8350E5" stroke-opacity="0.2" stroke-width="4.438"/>
</g>
<g filter="url(#filter3_f_438_12)">
<path fill-rule="evenodd" clip-rule="evenodd" d="M143.032 121.699C144.249 122.346 145.188 123.368 145.849 124.39C147.135 126.502 147.031 129.091 145.779 131.373L143.345 135.461C142.059 137.642 139.66 139.004 137.191 139.004C135.974 139.004 134.618 138.664 133.506 137.982C132.602 137.403 131.559 137.199 130.446 137.199C127.004 137.199 124.118 140.026 124.014 143.399C124.014 147.316 120.815 150.382 116.817 150.382H112.088C108.055 150.382 104.856 147.316 104.856 143.399C104.786 140.026 101.901 137.199 98.4585 137.199C97.3111 137.199 96.268 137.403 95.3988 137.982C94.2862 138.664 92.8954 139.004 91.7133 139.004C89.2099 139.004 86.8109 137.642 85.5244 135.461L83.1253 131.373C81.8389 129.159 81.7693 126.502 83.0558 124.39C83.6121 123.368 84.6552 122.346 85.8373 121.699C86.8108 121.222 87.4367 120.438 88.0278 119.518C89.7662 116.589 88.7231 112.739 85.7678 111.002C82.3256 109.06 81.213 104.734 83.1949 101.361L85.5244 97.3413C87.541 93.9688 91.8524 92.7765 95.3293 94.7523C98.3542 96.3875 102.283 95.2974 104.056 92.4017C104.613 91.4479 104.926 90.4259 104.856 89.4039C104.786 88.0753 105.169 86.8149 105.829 85.7929C107.116 83.6808 109.445 82.3181 111.984 82.25H116.886C119.459 82.25 121.788 83.6808 123.075 85.7929C123.701 86.8149 124.118 88.0753 124.014 89.4039C123.944 90.4259 124.257 91.4479 124.813 92.4017C126.587 95.2974 130.516 96.3875 133.575 94.7523C137.017 92.7765 141.363 93.9688 143.345 97.3413L145.675 101.361C147.691 104.734 146.579 109.06 143.102 111.002C140.147 112.739 139.103 116.589 140.877 119.518C141.433 120.438 142.059 121.222 143.032 121.699ZM104.613 116.35C104.613 121.699 109.028 125.957 114.487 125.957C119.946 125.957 124.257 121.699 124.257 116.35C124.257 111.002 119.946 106.71 114.487 106.71C109.028 106.71 104.613 111.002 104.613 116.35Z" stroke="#8350E5" stroke-width="2.73108"/>
</g>
<g filter="url(#filter4_f_438_12)">
<path fill-rule="evenodd" clip-rule="evenodd" d="M143.032 121.699C144.249 122.346 145.188 123.368 145.849 124.39C147.135 126.502 147.031 129.091 145.779 131.373L143.345 135.461C142.059 137.642 139.66 139.004 137.191 139.004C135.974 139.004 134.618 138.664 133.506 137.982C132.602 137.403 131.559 137.199 130.446 137.199C127.004 137.199 124.118 140.026 124.014 143.399C124.014 147.316 120.815 150.382 116.817 150.382H112.088C108.055 150.382 104.856 147.316 104.856 143.399C104.786 140.026 101.901 137.199 98.4585 137.199C97.3111 137.199 96.268 137.403 95.3988 137.982C94.2862 138.664 92.8954 139.004 91.7133 139.004C89.2099 139.004 86.8109 137.642 85.5244 135.461L83.1253 131.373C81.8389 129.159 81.7693 126.502 83.0558 124.39C83.6121 123.368 84.6552 122.346 85.8373 121.699C86.8108 121.222 87.4367 120.438 88.0278 119.518C89.7662 116.589 88.7231 112.739 85.7678 111.002C82.3256 109.06 81.213 104.734 83.1949 101.361L85.5244 97.3413C87.541 93.9688 91.8524 92.7765 95.3293 94.7523C98.3542 96.3875 102.283 95.2974 104.056 92.4017C104.613 91.4479 104.926 90.4259 104.856 89.4039C104.786 88.0753 105.169 86.8149 105.829 85.7929C107.116 83.6808 109.445 82.3181 111.984 82.25H116.886C119.459 82.25 121.788 83.6808 123.075 85.7929C123.701 86.8149 124.118 88.0753 124.014 89.4039C123.944 90.4259 124.257 91.4479 124.813 92.4017C126.587 95.2974 130.516 96.3875 133.575 94.7523C137.017 92.7765 141.363 93.9688 143.345 97.3413L145.675 101.361C147.691 104.734 146.579 109.06 143.102 111.002C140.147 112.739 139.103 116.589 140.877 119.518C141.433 120.438 142.059 121.222 143.032 121.699ZM104.613 116.35C104.613 121.699 109.028 125.957 114.487 125.957C119.946 125.957 124.257 121.699 124.257 116.35C124.257 111.002 119.946 106.71 114.487 106.71C109.028 106.71 104.613 111.002 104.613 116.35Z" stroke="white" stroke-width="1.36554"/>
</g>
<g filter="url(#filter5_b_438_12)">
<path fill-rule="evenodd" clip-rule="evenodd" d="M143.01 121.643C144.226 122.29 145.164 123.31 145.825 124.331C147.111 126.44 147.006 129.025 145.755 131.305L143.322 135.387C142.036 137.564 139.638 138.925 137.171 138.925C135.954 138.925 134.599 138.585 133.486 137.904C132.583 137.326 131.54 137.122 130.428 137.122C126.987 137.122 124.102 139.945 123.998 143.313C123.998 147.225 120.8 150.287 116.804 150.287H112.077C108.045 150.287 104.847 147.225 104.847 143.313C104.778 139.945 101.893 137.122 98.4523 137.122C97.3054 137.122 96.2627 137.326 95.3938 137.904C94.2817 138.585 92.8913 138.925 91.7096 138.925C89.2072 138.925 86.8091 137.564 85.5231 135.387L83.125 131.305C81.839 129.093 81.7694 126.44 83.0554 124.331C83.6115 123.31 84.6542 122.29 85.8359 121.643C86.8091 121.167 87.4347 120.385 88.0256 119.466C89.7634 116.541 88.7206 112.697 85.7664 110.962C82.3255 109.023 81.2133 104.702 83.1944 101.334L85.5231 97.3202C87.539 93.9523 91.8487 92.7617 95.3243 94.7348C98.3481 96.3676 102.275 95.2791 104.048 92.3875C104.604 91.435 104.917 90.4144 104.847 89.3939C104.778 88.0671 105.16 86.8085 105.821 85.7879C107.107 83.6788 109.435 82.318 111.972 82.25H116.873C119.445 82.25 121.774 83.6788 123.06 85.7879C123.685 86.8085 124.102 88.0671 123.998 89.3939C123.928 90.4144 124.241 91.435 124.797 92.3875C126.57 95.2791 130.497 96.3676 133.556 94.7348C136.997 92.7617 141.341 93.9523 143.322 97.3202L145.651 101.334C147.667 104.702 146.555 109.023 143.079 110.962C140.125 112.697 139.082 116.541 140.855 119.466C141.411 120.385 142.036 121.167 143.01 121.643ZM104.604 116.302C104.604 121.643 109.018 125.896 114.475 125.896C119.931 125.896 124.241 121.643 124.241 116.302C124.241 110.962 119.931 106.675 114.475 106.675C109.018 106.675 104.604 110.962 104.604 116.302Z" fill="#5B1ED0" fill-opacity="0.01"/>
</g>
<defs>
<filter id="filter0_f_438_12" x="52.6919" y="52.8169" width="123.508" height="126.999" filterUnits="userSpaceOnUse" color-interpolation-filters="sRGB">
<feFlood flood-opacity="0" result="BackgroundImageFix"/>
<feBlend mode="normal" in="SourceGraphic" in2="BackgroundImageFix" result="shape"/>
<feGaussianBlur stdDeviation="13.2656" result="effect1_foregroundBlur_438_12"/>
</filter>
<filter id="filter1_f_438_12" x="0.312088" y="0.43721" width="228.268" height="231.758" filterUnits="userSpaceOnUse" color-interpolation-filters="sRGB">
<feFlood flood-opacity="0" result="BackgroundImageFix"/>
<feBlend mode="normal" in="SourceGraphic" in2="BackgroundImageFix" result="shape"/>
<feGaussianBlur stdDeviation="39.7969" result="effect1_foregroundBlur_438_12"/>
</filter>
<filter id="filter2_ddi_438_12" x="45.4152" y="72.0716" width="138.061" height="141.552" filterUnits="userSpaceOnUse" color-interpolation-filters="sRGB">
<feFlood flood-opacity="0" result="BackgroundImageFix"/>
<feColorMatrix in="SourceAlpha" type="matrix" values="0 0 0 0 0 0 0 0 0 0 0 0 0 0 0 0 0 0 127 0" result="hardAlpha"/>
<feOffset dy="17.2453"/>
<feGaussianBlur stdDeviation="6.63282"/>
<feColorMatrix type="matrix" values="0 0 0 0 0.114706 0 0 0 0 0.0382353 0 0 0 0 0.261765 0 0 0 0.7 0"/>
<feBlend mode="multiply" in2="BackgroundImageFix" result="effect1_dropShadow_438_12"/>
<feColorMatrix in="SourceAlpha" type="matrix" values="0 0 0 0 0 0 0 0 0 0 0 0 0 0 0 0 0 0 127 0" result="hardAlpha"/>
<feOffset dy="26.5313"/>
<feGaussianBlur stdDeviation="17.2453"/>
<feColorMatrix type="matrix" values="0 0 0 0 0.229412 0 0 0 0 0.0764706 0 0 0 0 0.523529 0 0 0 1 0"/>
<feBlend mode="color-dodge" in2="effect1_dropShadow_438_12" result="effect2_dropShadow_438_12"/>
<feBlend mode="normal" in="SourceGraphic" in2="effect2_dropShadow_438_12" result="shape"/>
<feColorMatrix in="SourceAlpha" type="matrix" values="0 0 0 0 0 0 0 0 0 0 0 0 0 0 0 0 0 0 127 0" result="hardAlpha"/>
<feOffset dx="-1.72453" dy="3.44906"/>
<feGaussianBlur stdDeviation="0.862266"/>
<feComposite in2="hardAlpha" operator="arithmetic" k2="-1" k3="1"/>
<feColorMatrix type="matrix" values="0 0 0 0 1 0 0 0 0 1 0 0 0 0 1 0 0 0 0.5 0"/>
<feBlend mode="normal" in2="shape" result="effect3_innerShadow_438_12"/>
</filter>
<filter id="filter3_f_438_12" x="80.0766" y="80.2018" width="68.7386" height="72.2288" filterUnits="userSpaceOnUse" color-interpolation-filters="sRGB">
<feFlood flood-opacity="0" result="BackgroundImageFix"/>
<feBlend mode="normal" in="SourceGraphic" in2="BackgroundImageFix" result="shape"/>
<feGaussianBlur stdDeviation="0.341384" result="effect1_foregroundBlur_438_12"/>
</filter>
<filter id="filter4_f_438_12" x="80.9871" y="81.112" width="66.9177" height="70.4084" filterUnits="userSpaceOnUse" color-interpolation-filters="sRGB">
<feFlood flood-opacity="0" result="BackgroundImageFix"/>
<feBlend mode="normal" in="SourceGraphic" in2="BackgroundImageFix" result="shape"/>
<feGaussianBlur stdDeviation="0.22759" result="effect1_foregroundBlur_438_12"/>
</filter>
<filter id="filter5_b_438_12" x="66.125" y="66.25" width="96.6176" height="100.037" filterUnits="userSpaceOnUse" color-interpolation-filters="sRGB">
<feFlood flood-opacity="0" result="BackgroundImageFix"/>
<feGaussianBlur in="BackgroundImage" stdDeviation="8"/>
<feComposite in2="SourceAlpha" operator="in" result="effect1_backgroundBlur_438_12"/>
<feBlend mode="normal" in="SourceGraphic" in2="effect1_backgroundBlur_438_12" result="shape"/>
</filter>
</defs>
</svg>
