<svg width="233" height="233" viewBox="0 0 233 233" fill="none" xmlns="http://www.w3.org/2000/svg">
<g style="mix-blend-mode:hard-light" filter="url(#filter0_f_438_21)">
<path d="M117.382 82.9642C117.926 82.4759 118.644 82.22 119.38 82.2528C134.931 82.7189 147.927 94.0226 150.283 109.13C150.298 109.221 150.298 109.313 150.283 109.403C150.333 110.118 150.092 110.823 149.612 111.362C149.132 111.902 148.453 112.232 147.725 112.278L121.598 114.003C120.734 114.08 119.877 113.795 119.238 113.219C118.599 112.643 118.236 111.829 118.24 110.977L116.484 85.2796V84.8558C116.516 84.1331 116.839 83.4525 117.382 82.9642Z" stroke="#773EE3" stroke-width="4.438"/>
<path d="M115.59 120.723L138.236 119.27L138.39 119.331C139.362 119.346 140.289 119.741 140.965 120.428C141.641 121.115 142.011 122.038 141.995 122.993C141.102 136.013 131.569 146.892 118.595 149.695C105.621 152.498 92.3211 146.551 85.9509 135.1C84.0777 131.802 82.894 128.169 82.4693 124.415C82.3045 123.303 82.2324 122.18 82.2536 121.056C82.2966 107.211 92.1411 95.2601 105.916 92.3319C107.583 92.0194 109.255 92.853 109.983 94.3598C110.164 94.6332 110.309 94.9282 110.414 95.2376C110.672 99.2288 110.94 103.182 111.207 107.119C111.418 110.228 111.628 113.326 111.831 116.425C111.821 117.155 111.936 117.881 112.17 118.574C112.723 119.937 114.099 120.801 115.59 120.723Z" stroke="#773EE3" stroke-width="4.438"/>
</g>
<g style="mix-blend-mode:hard-light" filter="url(#filter1_f_438_21)">
<path d="M117.382 82.9642C117.926 82.4759 118.644 82.22 119.38 82.2528C134.931 82.7189 147.927 94.0226 150.283 109.13C150.298 109.221 150.298 109.313 150.283 109.403C150.333 110.118 150.092 110.823 149.612 111.362C149.132 111.902 148.453 112.232 147.725 112.278L121.598 114.003C120.734 114.08 119.877 113.795 119.238 113.219C118.599 112.643 118.236 111.829 118.24 110.977L116.484 85.2796V84.8558C116.516 84.1331 116.839 83.4525 117.382 82.9642Z" stroke="#7942E3" stroke-width="5.80354"/>
<path d="M115.59 120.723L138.236 119.27L138.39 119.331C139.362 119.346 140.289 119.741 140.965 120.428C141.641 121.115 142.011 122.038 141.995 122.993C141.102 136.013 131.569 146.892 118.595 149.695C105.621 152.498 92.3211 146.551 85.9509 135.1C84.0777 131.802 82.894 128.169 82.4693 124.415C82.3045 123.303 82.2324 122.18 82.2536 121.056C82.2966 107.211 92.1411 95.2601 105.916 92.3319C107.583 92.0194 109.255 92.853 109.983 94.3598C110.164 94.6332 110.309 94.9282 110.414 95.2376C110.672 99.2288 110.94 103.182 111.207 107.119C111.418 110.228 111.628 113.326 111.831 116.425C111.821 117.155 111.936 117.881 112.17 118.574C112.723 119.937 114.099 120.801 115.59 120.723Z" stroke="#7942E3" stroke-width="5.80354"/>
</g>
<g style="mix-blend-mode:hard-light" filter="url(#filter2_ddi_438_21)">
<path d="M117.382 82.9642C117.926 82.4759 118.644 82.22 119.38 82.2528C134.931 82.7189 147.927 94.0226 150.283 109.13C150.298 109.221 150.298 109.313 150.283 109.403C150.333 110.118 150.092 110.823 149.612 111.362C149.132 111.902 148.453 112.232 147.725 112.278L121.598 114.003C120.734 114.08 119.877 113.795 119.238 113.219C118.599 112.643 118.236 111.829 118.24 110.977L116.484 85.2796V84.8558C116.516 84.1331 116.839 83.4525 117.382 82.9642Z" stroke="#8350E5" stroke-opacity="0.2" stroke-width="4.438"/>
<path d="M115.59 120.723L138.236 119.27L138.39 119.331C139.362 119.346 140.289 119.741 140.965 120.428C141.641 121.115 142.011 122.038 141.995 122.993C141.102 136.013 131.569 146.892 118.595 149.695C105.621 152.498 92.3211 146.551 85.9509 135.1C84.0777 131.802 82.894 128.169 82.4693 124.415C82.3045 123.303 82.2324 122.18 82.2536 121.056C82.2966 107.211 92.1411 95.2601 105.916 92.3319C107.583 92.0194 109.255 92.853 109.983 94.3598C110.164 94.6332 110.309 94.9282 110.414 95.2376C110.672 99.2288 110.94 103.182 111.207 107.119C111.418 110.228 111.628 113.326 111.831 116.425C111.821 117.155 111.936 117.881 112.17 118.574C112.723 119.937 114.099 120.801 115.59 120.723Z" stroke="#8350E5" stroke-opacity="0.2" stroke-width="4.438"/>
</g>
<g filter="url(#filter3_f_438_21)">
<path d="M117.382 82.9642C117.926 82.4759 118.644 82.22 119.38 82.2528C134.931 82.7189 147.927 94.0226 150.283 109.13C150.298 109.221 150.298 109.313 150.283 109.403C150.333 110.118 150.092 110.823 149.612 111.362C149.132 111.902 148.453 112.232 147.725 112.278L121.598 114.003C120.734 114.08 119.877 113.795 119.238 113.219C118.599 112.643 118.236 111.829 118.24 110.977L116.484 85.2796V84.8558C116.516 84.1331 116.839 83.4525 117.382 82.9642Z" stroke="#8350E5" stroke-width="2.73108"/>
<path d="M115.59 120.723L138.236 119.27L138.39 119.331C139.362 119.346 140.289 119.741 140.965 120.428C141.641 121.115 142.011 122.038 141.995 122.993C141.102 136.013 131.569 146.892 118.595 149.695C105.621 152.498 92.3211 146.551 85.9509 135.1C84.0777 131.802 82.894 128.169 82.4693 124.415C82.3045 123.303 82.2324 122.18 82.2536 121.056C82.2966 107.211 92.1411 95.2601 105.916 92.3319C107.583 92.0194 109.255 92.853 109.983 94.3598C110.164 94.6332 110.309 94.9282 110.414 95.2376C110.672 99.2288 110.94 103.182 111.207 107.119C111.418 110.228 111.628 113.326 111.831 116.425C111.821 117.155 111.936 117.881 112.17 118.574C112.723 119.937 114.099 120.801 115.59 120.723Z" stroke="#8350E5" stroke-width="2.73108"/>
</g>
<g filter="url(#filter4_f_438_21)">
<path d="M117.382 82.9642C117.926 82.4759 118.644 82.22 119.38 82.2528C134.931 82.7189 147.927 94.0226 150.283 109.13C150.298 109.221 150.298 109.313 150.283 109.403C150.333 110.118 150.092 110.823 149.612 111.362C149.132 111.902 148.453 112.232 147.725 112.278L121.598 114.003C120.734 114.08 119.877 113.795 119.238 113.219C118.599 112.643 118.236 111.829 118.24 110.977L116.484 85.2796V84.8558C116.516 84.1331 116.839 83.4525 117.382 82.9642Z" stroke="white" stroke-width="1.36554"/>
<path d="M115.59 120.723L138.236 119.27L138.39 119.331C139.362 119.346 140.289 119.741 140.965 120.428C141.641 121.115 142.011 122.038 141.995 122.993C141.102 136.013 131.569 146.892 118.595 149.695C105.621 152.498 92.3211 146.551 85.9509 135.1C84.0777 131.802 82.894 128.169 82.4693 124.415C82.3045 123.303 82.2324 122.18 82.2536 121.056C82.2966 107.211 92.1411 95.2601 105.916 92.3319C107.583 92.0194 109.255 92.853 109.983 94.3598C110.164 94.6332 110.309 94.9282 110.414 95.2376C110.672 99.2288 110.94 103.182 111.207 107.119C111.418 110.228 111.628 113.326 111.831 116.425C111.821 117.155 111.936 117.881 112.17 118.574C112.723 119.937 114.099 120.801 115.59 120.723Z" stroke="white" stroke-width="1.36554"/>
</g>
<g filter="url(#filter5_b_438_21)">
<path d="M117.369 82.9632C117.912 82.4756 118.631 82.22 119.366 82.2528C134.911 82.7183 147.903 94.0061 150.257 109.093C150.272 109.183 150.272 109.275 150.257 109.365C150.308 110.079 150.067 110.783 149.587 111.322C149.107 111.86 148.429 112.19 147.701 112.236L121.584 113.959C120.72 114.036 119.863 113.751 119.224 113.176C118.585 112.601 118.223 111.787 118.227 110.936L116.471 85.2753V84.8522C116.503 84.1305 116.826 83.4509 117.369 82.9632Z" fill="#5B1ED0" fill-opacity="0.01"/>
<path d="M115.578 120.669L138.215 119.218L138.369 119.279C139.341 119.294 140.267 119.689 140.943 120.375C141.618 121.06 141.989 121.982 141.972 122.936C141.08 135.938 131.55 146.802 118.581 149.6C105.612 152.399 92.3173 146.461 85.9495 135.026C84.0771 131.732 82.8938 128.105 82.4692 124.356C82.3045 123.246 82.2324 122.124 82.2536 121.001C82.2965 107.176 92.1374 95.2419 105.907 92.3178C107.574 92.0057 109.245 92.8382 109.972 94.3428C110.154 94.6159 110.298 94.9104 110.404 95.2194C110.662 99.2049 110.93 103.153 111.196 107.084C111.407 110.189 111.617 113.283 111.82 116.377C111.81 117.106 111.924 117.831 112.159 118.523C112.712 119.884 114.087 120.747 115.578 120.669Z" fill="#5B1ED0" fill-opacity="0.01"/>
</g>
<defs>
<filter id="filter0_f_438_21" x="0.43721" y="0.43721" width="231.67" height="231.758" filterUnits="userSpaceOnUse" color-interpolation-filters="sRGB">
<feFlood flood-opacity="0" result="BackgroundImageFix"/>
<feBlend mode="normal" in="SourceGraphic" in2="BackgroundImageFix" result="shape"/>
<feGaussianBlur stdDeviation="39.7969" result="effect1_foregroundBlur_438_21"/>
</filter>
<filter id="filter1_f_438_21" x="52.817" y="52.8169" width="126.91" height="126.998" filterUnits="userSpaceOnUse" color-interpolation-filters="sRGB">
<feFlood flood-opacity="0" result="BackgroundImageFix"/>
<feBlend mode="normal" in="SourceGraphic" in2="BackgroundImageFix" result="shape"/>
<feGaussianBlur stdDeviation="13.2656" result="effect1_foregroundBlur_438_21"/>
</filter>
<filter id="filter2_ddi_438_21" x="45.5404" y="72.0716" width="141.463" height="141.552" filterUnits="userSpaceOnUse" color-interpolation-filters="sRGB">
<feFlood flood-opacity="0" result="BackgroundImageFix"/>
<feColorMatrix in="SourceAlpha" type="matrix" values="0 0 0 0 0 0 0 0 0 0 0 0 0 0 0 0 0 0 127 0" result="hardAlpha"/>
<feOffset dy="17.2453"/>
<feGaussianBlur stdDeviation="6.63282"/>
<feColorMatrix type="matrix" values="0 0 0 0 0.114706 0 0 0 0 0.0382353 0 0 0 0 0.261765 0 0 0 0.7 0"/>
<feBlend mode="multiply" in2="BackgroundImageFix" result="effect1_dropShadow_438_21"/>
<feColorMatrix in="SourceAlpha" type="matrix" values="0 0 0 0 0 0 0 0 0 0 0 0 0 0 0 0 0 0 127 0" result="hardAlpha"/>
<feOffset dy="26.5313"/>
<feGaussianBlur stdDeviation="17.2453"/>
<feColorMatrix type="matrix" values="0 0 0 0 0.229412 0 0 0 0 0.0764706 0 0 0 0 0.523529 0 0 0 1 0"/>
<feBlend mode="color-dodge" in2="effect1_dropShadow_438_21" result="effect2_dropShadow_438_21"/>
<feBlend mode="normal" in="SourceGraphic" in2="effect2_dropShadow_438_21" result="shape"/>
<feColorMatrix in="SourceAlpha" type="matrix" values="0 0 0 0 0 0 0 0 0 0 0 0 0 0 0 0 0 0 127 0" result="hardAlpha"/>
<feOffset dx="-1.72453" dy="3.44906"/>
<feGaussianBlur stdDeviation="0.862266"/>
<feComposite in2="hardAlpha" operator="arithmetic" k2="-1" k3="1"/>
<feColorMatrix type="matrix" values="0 0 0 0 1 0 0 0 0 1 0 0 0 0 1 0 0 0 0.5 0"/>
<feBlend mode="normal" in2="shape" result="effect3_innerShadow_438_21"/>
</filter>
<filter id="filter3_f_438_21" x="80.2018" y="80.2018" width="72.1404" height="72.2288" filterUnits="userSpaceOnUse" color-interpolation-filters="sRGB">
<feFlood flood-opacity="0" result="BackgroundImageFix"/>
<feBlend mode="normal" in="SourceGraphic" in2="BackgroundImageFix" result="shape"/>
<feGaussianBlur stdDeviation="0.341384" result="effect1_foregroundBlur_438_21"/>
</filter>
<filter id="filter4_f_438_21" x="81.1121" y="81.112" width="70.3198" height="70.4084" filterUnits="userSpaceOnUse" color-interpolation-filters="sRGB">
<feFlood flood-opacity="0" result="BackgroundImageFix"/>
<feBlend mode="normal" in="SourceGraphic" in2="BackgroundImageFix" result="shape"/>
<feGaussianBlur stdDeviation="0.22759" result="effect1_foregroundBlur_438_21"/>
</filter>
<filter id="filter5_b_438_21" x="66.25" y="66.25" width="100.018" height="100.037" filterUnits="userSpaceOnUse" color-interpolation-filters="sRGB">
<feFlood flood-opacity="0" result="BackgroundImageFix"/>
<feGaussianBlur in="BackgroundImage" stdDeviation="8"/>
<feComposite in2="SourceAlpha" operator="in" result="effect1_backgroundBlur_438_21"/>
<feBlend mode="normal" in="SourceGraphic" in2="effect1_backgroundBlur_438_21" result="shape"/>
</filter>
</defs>
</svg>
